<mxfile host="app.diagrams.net" modified="2021-06-28T08:41:55.114Z" agent="5.0 (Macintosh; Intel Mac OS X 10_13_6) AppleWebKit/537.36 (KHTML, like Gecko) Chrome/91.0.4472.114 Safari/537.36" etag="am2rtpPDGzFZTlU5mGhu" version="14.8.1" type="github">
  <diagram id="KAZm05Sm-PhzG9RKhNph" name="Page-1">
    <mxGraphModel dx="873" dy="462" grid="1" gridSize="10" guides="1" tooltips="1" connect="1" arrows="1" fold="1" page="1" pageScale="1" pageWidth="827" pageHeight="1169" math="0" shadow="0">
      <root>
        <mxCell id="0" />
        <mxCell id="1" parent="0" />
        <mxCell id="1gXMjl1y4tyzaUeLnTLn-1" value="防御" style="rounded=1;whiteSpace=wrap;html=1;" vertex="1" parent="1">
          <mxGeometry x="180" y="460" width="50" height="30" as="geometry" />
        </mxCell>
        <mxCell id="1gXMjl1y4tyzaUeLnTLn-2" value="" style="rounded=1;whiteSpace=wrap;html=1;" vertex="1" parent="1">
          <mxGeometry x="269" y="400" width="290" height="170" as="geometry" />
        </mxCell>
        <mxCell id="1gXMjl1y4tyzaUeLnTLn-3" value="网络" style="rounded=1;whiteSpace=wrap;html=1;" vertex="1" parent="1">
          <mxGeometry x="290" y="415" width="50" height="140" as="geometry" />
        </mxCell>
        <mxCell id="1gXMjl1y4tyzaUeLnTLn-4" value="攻击1" style="rounded=1;whiteSpace=wrap;html=1;" vertex="1" parent="1">
          <mxGeometry x="389" y="410" width="50" height="30" as="geometry" />
        </mxCell>
        <mxCell id="1gXMjl1y4tyzaUeLnTLn-5" value="攻击2" style="rounded=1;whiteSpace=wrap;html=1;" vertex="1" parent="1">
          <mxGeometry x="389" y="450" width="50" height="30" as="geometry" />
        </mxCell>
        <mxCell id="1gXMjl1y4tyzaUeLnTLn-7" value="" style="endArrow=none;dashed=1;html=1;dashPattern=1 3;strokeWidth=2;" edge="1" parent="1">
          <mxGeometry width="50" height="50" relative="1" as="geometry">
            <mxPoint x="413" y="520" as="sourcePoint" />
            <mxPoint x="413" y="490" as="targetPoint" />
          </mxGeometry>
        </mxCell>
        <mxCell id="1gXMjl1y4tyzaUeLnTLn-8" value="攻击n" style="rounded=1;whiteSpace=wrap;html=1;" vertex="1" parent="1">
          <mxGeometry x="389" y="530" width="50" height="30" as="geometry" />
        </mxCell>
        <mxCell id="1gXMjl1y4tyzaUeLnTLn-9" value="&lt;i&gt;a_{t&lt;span style=&quot;font-size: 10px&quot;&gt;&lt;sub&gt;1&lt;/sub&gt;&lt;/span&gt;,node&lt;span style=&quot;font-size: 10px&quot;&gt;&lt;sub&gt;1&lt;/sub&gt;&lt;/span&gt;}&lt;/i&gt;" style="text;html=1;strokeColor=none;fillColor=none;align=center;verticalAlign=middle;whiteSpace=wrap;rounded=0;" vertex="1" parent="1">
          <mxGeometry x="460" y="415" width="80" height="20" as="geometry" />
        </mxCell>
        <mxCell id="1gXMjl1y4tyzaUeLnTLn-10" value="&lt;i&gt;a_{t&lt;span style=&quot;font-size: 10px&quot;&gt;&lt;sub&gt;2&lt;/sub&gt;&lt;/span&gt;,node&lt;span style=&quot;font-size: 10px&quot;&gt;&lt;sub&gt;2&lt;/sub&gt;&lt;/span&gt;}&lt;/i&gt;" style="text;html=1;strokeColor=none;fillColor=none;align=center;verticalAlign=middle;whiteSpace=wrap;rounded=0;" vertex="1" parent="1">
          <mxGeometry x="460" y="455" width="80" height="20" as="geometry" />
        </mxCell>
        <mxCell id="1gXMjl1y4tyzaUeLnTLn-11" value="&lt;i&gt;a_{t&lt;span style=&quot;font-size: 10px&quot;&gt;&lt;sub&gt;n&lt;/sub&gt;&lt;/span&gt;,node&lt;span style=&quot;font-size: 10px&quot;&gt;&lt;sub&gt;n&lt;/sub&gt;&lt;/span&gt;}&lt;/i&gt;" style="text;html=1;strokeColor=none;fillColor=none;align=center;verticalAlign=middle;whiteSpace=wrap;rounded=0;" vertex="1" parent="1">
          <mxGeometry x="460" y="535" width="80" height="20" as="geometry" />
        </mxCell>
      </root>
    </mxGraphModel>
  </diagram>
</mxfile>
